# File created by Blade
# Date/Time:  Tue Jan 27 18:35:12 2015
#---------------------------------------------------------
:version 1.10
:name HOM
:units
  mass 1.0
  length 1.000000
  angle deg
:documentation
     Acclaim Skeleton File
:root
   axis xyz
   order TX TY TZ RX RY RZ
   position 0.000000 0.000000 0.000000
   orientation 0 0 0
:bonedata
   begin
      id 1
      name Spine_dum
      direction 0.000000 1.000000 0.000000
      length 5.195262
      axis 0.0 0.0 0.0 xyz
   end
   begin
      id 2
      name LeftUpLeg_dum
      direction 1.000000 0.000000 0.000000
      length 3.351363
      axis 0.0 0.0 0.0 xyz
   end
   begin
      id 3
      name RightUpLeg_dum
      direction -1.000000 0.000000 0.000000
      length 3.351363
      axis 0.0 0.0 0.0 xyz
   end
   begin
      id 4
      name Spine
      direction 0.000000 1.000000 0.000000
      length 0.000000
      axis 0.0 0.0 0.0 xyz
      dof rx ry rz
   end
   begin
      id 5
      name Spine_dum1
      direction 0.000000 1.000000 0.000000
      length 15.653875
      axis 0.0 0.0 0.0 xyz
   end
   begin
      id 6
      name Spine_dum2
      direction 0.000000 1.000000 0.000000
      length 10.329768
      axis 0.0 0.0 0.0 xyz
   end
   begin
      id 7
      name Spine_dum3
      direction 0.000000 1.000000 0.000000
      length 10.329768
      axis 0.0 0.0 0.0 xyz
   end
   begin
      id 8
      name Head
      direction 0.000000 1.000000 0.000000
      length 4.527550
      axis 0.0 0.0 0.0 xyz
      dof rx ry rz
   end
   begin
      id 9
      name LeftShoulder
      direction 1.000000 0.000000 0.000000
      length 6.996006
      axis 0.0 0.0 -90.0 xyz
      dof rx ry rz
   end
   begin
      id 10
      name LeftArm
      direction 1.000000 0.000000 0.000000
      length 10.209302
      axis 0.0 0.0 -90.0 xyz
      dof rx ry rz
   end
   begin
      id 11
      name LeftForeArm
      direction 1.000000 0.000000 0.000000
      length 8.563163
      axis 0.0 0.0 -90.0 xyz
      dof ry rz rx
   end
   begin
      id 12
      name LeftHand
      direction 0.000000 0.000000 0.000000
      length 0.000000
      axis 0.0 0.0 -90.0 xyz
      dof rx ry rz
   end
   begin
      id 13
      name LeftHand_dum1
      direction 0.000000 0.000000 0.000000
      length 0.000000
      axis 0.0 0.0 -90.0 xyz
   end
   begin
      id 14
      name LeftHand_dum2
      direction 1.000000 0.000000 0.000000
      length 3.937000
      axis 0.0 0.0 -90.0 xyz
   end
   begin
      id 15
      name LeftHandThumb1
      direction 0.000000 0.000000 1.000000
      length 3.937000
      axis 0.0 0.0 -90.0 xyz
      dof rx rz ry
   end
   begin
      id 16
      name RightShoulder
      direction -1.000000 0.000000 0.000000
      length 6.996006
      axis 0.0 0.0 90.0 xyz
      dof rx ry rz
   end
   begin
      id 17
      name RightArm
      direction -1.000000 0.000000 0.000000
      length 10.209302
      axis 0.0 0.0 90.0 xyz
      dof rx ry rz
   end
   begin
      id 18
      name RightForeArm
      direction -1.000000 0.000000 0.000000
      length 8.563163
      axis 0.0 0.0 90.0 xyz
      dof ry rz rx
   end
   begin
      id 19
      name RightHand
      direction 0.000000 0.000000 0.000000
      length 0.000000
      axis 0.0 0.0 90.0 xyz
      dof rx ry rz
   end
   begin
      id 20
      name RightHand_dum1
      direction 0.000000 0.000000 0.000000
      length 0.000000
      axis 0.0 0.0 90.0 xyz
   end
   begin
      id 21
      name RightHand_dum2
      direction -1.000000 0.000000 0.000000
      length 3.937000
      axis 0.0 0.0 90.0 xyz
   end
   begin
      id 22
      name RightHandThumb1
      direction 0.000000 0.000000 1.000000
      length 3.937000
      axis 0.0 0.0 90.0 xyz
      dof rx rz ry
   end
   begin
      id 23
      name LeftUpLeg
      direction 0.000000 -1.000000 0.000000
      length 16.346831
      axis 0.0 0.0 0.0 xyz
      dof rx ry rz
   end
   begin
      id 24
      name LeftLeg
      direction 0.000000 -1.000000 0.000000
      length 13.959795
      axis 0.0 0.0 0.0 xyz
      dof rx ry rz
   end
   begin
      id 25
      name LeftFoot
      direction 0.000000 -0.258819 0.965926
      length 5.165550
      axis 15.0 0.0 0.0 xyz
      dof rx ry rz
   end
   begin
      id 26
      name LeftToeBase
      direction 0.000000 0.000000 1.000000
      length 2.952750
      axis 0.0 0.0 0.0 xyz
      dof rx ry rz
   end
   begin
      id 27
      name RightUpLeg
      direction 0.000000 -1.000000 0.000000
      length 16.346831
      axis 0.0 0.0 0.0 xyz
      dof rx ry rz
   end
   begin
      id 28
      name RightLeg
      direction 0.000000 -1.000000 0.000000
      length 13.959795
      axis 0.0 0.0 0.0 xyz
      dof rx ry rz
   end
   begin
      id 29
      name RightFoot
      direction 0.000000 -0.258819 0.965926
      length 5.165550
      axis 15.0 0.0 0.0 xyz
      dof rx ry rz
   end
   begin
      id 30
      name RightToeBase
      direction 0.000000 0.000000 1.000000
      length 2.952750
      axis 0.0 0.0 0.0 xyz
      dof rx ry rz
   end
:hierarchy
   begin
      root Spine_dum LeftUpLeg_dum RightUpLeg_dum
      Spine_dum Spine
      LeftUpLeg_dum LeftUpLeg
      RightUpLeg_dum RightUpLeg
      Spine Spine_dum1 Spine_dum2 Spine_dum3
      Spine_dum1 Head
      Spine_dum2 LeftShoulder
      Spine_dum3 RightShoulder
      LeftShoulder LeftArm
      LeftArm LeftForeArm
      LeftForeArm LeftHand
      LeftHand LeftHand_dum1 LeftHand_dum2
      LeftHand_dum1 LeftHandThumb1
      RightShoulder RightArm
      RightArm RightForeArm
      RightForeArm RightHand
      RightHand RightHand_dum1 RightHand_dum2
      RightHand_dum1 RightHandThumb1
      LeftUpLeg LeftLeg
      LeftLeg LeftFoot
      LeftFoot LeftToeBase
      RightUpLeg RightLeg
      RightLeg RightFoot
      RightFoot RightToeBase
   end

# File created by Blade
# Date/Time:  Tue Jan 27 18:35:03 2015
# Frame Rate: 120.000 fps
#------------------------------------------------------
:FULLY-SPECIFIED
:DEGREES
748
root -4.439420 31.733484 -1.663518 -15.726693 38.947215 -16.322568
Spine 19.171679 -19.352774 -6.139512
Head 9.934230 -3.111273 15.641875
LeftShoulder -10.259674 7.373094 21.431620
LeftArm 38.691799 -13.057225 -74.886597
LeftForeArm 138.132600 -0.000000 126.580374
LeftHand 7.607639 0.000000 -7.918500
LeftHandThumb1 -26.253704 0.000000 33.147579
RightShoulder -17.230203 -10.764769 -6.019949
RightArm 3.981414 -38.577473 79.817092
RightForeArm -23.561130 -0.000000 23.396502
RightHand -12.720515 -0.000000 14.806423
RightHandThumb1 -24.326973 -0.000000 -32.862282
LeftUpLeg -8.278435 -5.131010 8.561334
LeftLeg 34.856683 -0.000000 -0.000000
LeftFoot -23.929525 -7.778033 -16.217525
LeftToeBase 19.615560 -0.000000 -0.000000
RightUpLeg -89.657020 6.344302 25.080120
RightLeg 87.555412 -0.000000 -0.000000
RightFoot 4.405879 3.951535 22.084174
RightToeBase 14.970600 -0.000000 -0.000000
749
root -4.409470 31.718150 -1.667332 -15.439587 38.667609 -15.800504
Spine 19.091394 -18.871776 -6.443872
Head 9.861048 -3.142968 15.428909
LeftShoulder -10.329146 7.252743 21.430099
LeftArm 38.687381 -13.055514 -74.760804
LeftForeArm 138.354774 -0.000000 126.415205
LeftHand 7.620554 -0.000000 -7.723385
LeftHandThumb1 -26.253704 0.000000 33.147579
RightShoulder -17.091728 -10.613120 -6.189896
RightArm 3.902216 -38.847685 79.965936
RightForeArm -23.639811 -0.000000 23.431973
RightHand -12.748393 -0.000000 14.826176
RightHandThumb1 -24.326973 -0.000000 -32.862282
LeftUpLeg -8.041850 -4.814125 8.186135
LeftLeg 34.705602 -0.000000 -0.000000
LeftFoot -23.941687 -7.825584 -16.277903
LeftToeBase 19.647080 -0.000000 -0.000000
RightUpLeg -89.762983 6.057945 26.870177
RightLeg 88.413287 -0.000000 -0.000000
RightFoot 4.821482 5.020304 24.369508
RightToeBase 13.926947 -0.000000 -0.000000
750
root -4.380480 31.702349 -1.673876 -15.157193 38.373006 -15.304710
Spine 19.031292 -18.392315 -6.708801
Head 9.668333 -3.170548 15.279040
LeftShoulder -10.422179 7.091968 21.419404
LeftArm 38.655742 -13.030712 -74.554126
LeftForeArm 138.364591 -0.000000 126.307482
LeftHand 7.698321 -0.000000 -7.801479
LeftHandThumb1 -26.253704 0.000000 33.147579
RightShoulder -16.980185 -10.505864 -6.333895
RightArm 3.957820 -39.130052 80.006630
RightForeArm -23.853061 -0.000000 23.515494
RightHand -12.793266 -0.000000 14.885522
RightHandThumb1 -24.326973 -0.000000 -32.862282
LeftUpLeg -7.841100 -4.511290 7.820239
LeftLeg 34.601762 -0.000000 -0.000000
LeftFoot -23.975172 -7.811539 -16.335867
LeftToeBase 19.671429 -0.000000 -0.000000
RightUpLeg -89.868168 5.777686 28.722553
RightLeg 89.197411 -0.000000 -0.000000
RightFoot 5.283349 5.969890 26.865960
RightToeBase 13.013350 -0.000000 -0.000000
751
root -4.345015 31.683808 -1.683249 -14.869488 38.104581 -14.768011
Spine 18.993543 -17.922767 -7.001610
Head 9.450684 -3.149764 14.989051
LeftShoulder -10.508302 6.939146 21.398193
LeftArm 38.624070 -13.022740 -74.265242
LeftForeArm 138.455442 -0.000000 126.184911
LeftHand 7.706489 0.000000 -7.921879
LeftHandThumb1 -26.253704 0.000000 33.147579
RightShoulder -16.829255 -10.402625 -6.464130
RightArm 3.999075 -39.338927 80.010016
RightForeArm -24.032408 -0.000000 23.719482
RightHand -12.697268 -0.000000 15.067440
RightHandThumb1 -24.326973 -0.000000 -32.862282
LeftUpLeg -7.632009 -4.257697 7.391263
LeftLeg 34.504349 -0.000000 -0.000000
LeftFoot -24.010027 -7.724203 -16.294371
LeftToeBase 19.611678 -0.000000 -0.000000
RightUpLeg -90.006787 5.464005 30.548278
RightLeg 90.038798 -0.000000 -0.000000
RightFoot 5.563972 6.848433 29.211022
RightToeBase 12.708896 -0.000000 -0.000000
752
root -4.315916 31.664986 -1.691405 -14.585036 37.793803 -14.274560
Spine 18.950308 -17.403375 -7.265528
Head 9.137075 -3.152349 14.872888
LeftShoulder -10.609186 6.845876 21.412514
LeftArm 38.678074 -12.997659 -73.987702
LeftForeArm 138.369724 -0.000000 126.087921
LeftHand 7.692793 -0.000000 -8.120818
LeftHandThumb1 -26.253704 0.000000 33.147579
RightShoulder -16.684044 -10.313299 -6.537041
RightArm 4.088553 -39.580125 79.921025
RightForeArm -24.229638 -0.000000 23.971370
RightHand -12.680152 -0.000000 15.154032
RightHandThumb1 -24.326973 -0.000000 -32.862282
LeftUpLeg -7.458649 -4.041663 7.003020
LeftLeg 34.433747 -0.000000 -0.000000
LeftFoot -24.085622 -7.548280 -16.273937
LeftToeBase 19.526775 -0.000000 -0.000000
RightUpLeg -90.135335 5.234715 32.451527
RightLeg 90.780611 -0.000000 -0.000000
RightFoot 5.606915 7.310004 31.112555
RightToeBase 12.593603 -0.000000 -0.000000
753
root -4.286590 31.643979 -1.702287 -14.283743 37.489034 -13.766836
Spine 18.905816 -16.894591 -7.530107
Head 8.800635 -3.156500 14.704904
LeftShoulder -10.688721 6.719376 21.437549
LeftArm 38.678533 -13.014745 -73.691517
LeftForeArm 138.286555 -0.000000 125.988269
LeftHand 7.629497 -0.000000 -8.188143
LeftHandThumb1 -26.253704 0.000000 33.147579
RightShoulder -16.554807 -10.166730 -6.623254
RightArm 4.155497 -39.790299 79.842013
RightForeArm -24.391487 -0.000000 24.267950
RightHand -12.743702 -0.000000 15.172872
RightHandThumb1 -24.326973 -0.000000 -32.862282
LeftUpLeg -7.321814 -3.803633 6.593531
LeftLeg 34.401251 -0.000000 -0.000000
LeftFoot -24.153352 -7.383396 -16.254184
LeftToeBase 19.407536 -0.000000 -0.000000
RightUpLeg -90.309933 5.029724 34.265448
RightLeg 91.540904 -0.000000 -0.000000
RightFoot 5.747621 7.611645 33.281422
RightToeBase 12.180445 -0.000000 -0.000000
754
root -4.257138 31.622561 -1.713361 -14.002769 37.182433 -13.283931
Spine 18.869576 -16.379284 -7.778679
Head 8.456959 -3.115357 14.556197
LeftShoulder -10.752870 6.633350 21.467670
LeftArm 38.733502 -13.031383 -73.426052
LeftForeArm 138.174781 -0.000000 125.939751
LeftHand 7.751787 -0.000000 -8.327829
LeftHandThumb1 -26.253704 0.000000 33.147579
RightShoulder -16.400858 -10.070268 -6.686759
RightArm 4.301808 -39.938789 79.698145
RightForeArm -24.554149 -0.000000 24.580810
RightHand -12.818410 -0.000000 15.431146
RightHandThumb1 -24.326973 -0.000000 -32.862282
LeftUpLeg -7.193840 -3.565516 6.200528
LeftLeg 34.385081 -0.000000 -0.000000
LeftFoot -24.225463 -7.183337 -16.154044
LeftToeBase 19.141294 -0.000000 -0.000000
RightUpLeg -90.499312 4.856847 35.994043
RightLeg 92.283584 -0.000000 -0.000000
RightFoot 5.901056 7.791290 35.084306
RightToeBase 11.111317 -0.000000 -0.000000
755
root -4.222675 31.597661 -1.723353 -13.710626 36.883946 -12.745903
Spine 18.840960 -15.863556 -8.081707
Head 8.161560 -3.099602 14.370922
LeftShoulder -10.803595 6.547637 21.525971
LeftArm 38.757180 -13.050969 -73.170114
LeftForeArm 137.883161 0.000000 125.862419
LeftHand 7.721825 0.000000 -8.298173
LeftHandThumb1 -26.253704 0.000000 33.147579
RightShoulder -16.243792 -9.985816 -6.755316
RightArm 4.488630 -40.130745 79.523807
RightForeArm -24.624597 0.000000 24.872884
RightHand -12.969427 -0.000000 15.239815
RightHandThumb1 -24.326973 -0.000000 -32.862282
LeftUpLeg -7.036760 -3.352130 5.740048
LeftLeg 34.357735 -0.000000 -0.000000
LeftFoot -24.326905 -6.940541 -16.060998
LeftToeBase 19.019455 -0.000000 -0.000000
RightUpLeg -90.696705 4.732749 37.670446
RightLeg 93.060297 -0.000000 -0.000000
RightFoot 5.614618 7.586900 36.594731
RightToeBase 11.140814 -0.000000 -0.000000
756
root -4.193916 31.571692 -1.737990 -13.387321 36.636305 -12.272817
Spine 18.757092 -15.435769 -8.322301
Head 7.808241 -3.093928 14.284145
LeftShoulder -10.862704 6.491114 21.547046
LeftArm 38.837605 -13.099978 -72.915685
LeftForeArm 137.607926 -0.000000 125.829304
LeftHand 7.750097 -0.000000 -8.414307
LeftHandThumb1 -26.253704 0.000000 33.147579
RightShoulder -16.094543 -9.859100 -6.856321
RightArm 4.673908 -40.269807 79.364271
RightForeArm -24.620663 -0.000000 25.142726
RightHand -12.967503 0.000000 15.151456
RightHandThumb1 -24.326973 -0.000000 -32.862282
LeftUpLeg -7.007951 -3.191645 5.324353
LeftLeg 34.388117 -0.000000 -0.000000
LeftFoot -24.432673 -6.716011 -15.971796
LeftToeBase 18.805678 -0.000000 -0.000000
RightUpLeg -91.006389 4.663125 39.174074
RightLeg 93.809332 -0.000000 -0.000000
RightFoot 5.445618 7.564250 37.734639
RightToeBase 10.665070 -0.000000 -0.000000
757
root -4.175004 31.549361 -1.756716 -13.088323 36.415514 -11.872223
Spine 18.704054 -15.039008 -8.529448
Head 7.426866 -3.041764 14.224815
LeftShoulder -10.932287 6.398726 21.592661
LeftArm 38.890590 -13.131587 -72.669204
LeftForeArm 137.461482 0.000000 125.823035
LeftHand 7.732207 -0.000000 -8.569353
LeftHandThumb1 -26.253704 0.000000 33.147579
RightShoulder -15.973814 -9.660930 -6.924698
RightArm 4.908854 -40.490845 79.160401
RightForeArm -24.554478 -0.000000 25.325380
RightHand -12.950305 -0.000000 14.996733
RightHandThumb1 -24.326973 -0.000000 -32.862282
LeftUpLeg -7.041053 -3.114934 4.976019
LeftLeg 34.446944 -0.000000 -0.000000
LeftFoot -24.495962 -6.512888 -15.934713
LeftToeBase 18.562026 -0.000000 -0.000000
RightUpLeg -91.330245 4.637000 40.554582
RightLeg 94.455798 -0.000000 -0.000000
RightFoot 5.261021 7.549845 38.678846
RightToeBase 10.950597 -0.000000 -0.000000
758
root -4.156005 31.526703 -1.772055 -12.815020 36.165883 -11.515995
Spine 18.640050 -14.662938 -8.692135
Head 7.075122 -2.982168 14.138610
LeftShoulder -11.012246 6.332796 21.610750
LeftArm 38.947652 -13.196556 -72.429470
LeftForeArm 137.244740 -0.000000 125.836434
LeftHand 7.728420 -0.000000 -8.592695
LeftHandThumb1 -26.253704 0.000000 33.147579
RightShoulder -15.820655 -9.524109 -6.997965
RightArm 5.193948 -40.533407 78.934572
RightForeArm -24.430281 -0.000000 25.558561
RightHand -12.977706 0.000000 14.814206
RightHandThumb1 -24.326973 -0.000000 -32.862282
LeftUpLeg -7.081597 -2.980878 4.675345
LeftLeg 34.531451 -0.000000 -0.000000
LeftFoot -24.581869 -6.342521 -15.859504
LeftToeBase 18.397791 -0.000000 -0.000000
RightUpLeg -91.631156 4.668678 41.813734
RightLeg 95.068847 -0.000000 -0.000000
RightFoot 5.035607 7.644075 39.514832
RightToeBase 10.918778 -0.000000 -0.000000
759
root -4.143723 31.504085 -1.787624 -12.533199 35.960651 -11.233929
Spine 18.532178 -14.353823 -8.799584
Head 6.734646 -2.952323 14.062084
LeftShoulder -11.073488 6.255661 21.637110
LeftArm 38.967460 -13.250247 -72.191586
LeftForeArm 137.126990 -0.000000 125.895376
LeftHand 7.744518 -0.000000 -8.690363
LeftHandThumb1 -26.253704 0.000000 33.147579
RightShoulder -15.677708 -9.328377 -7.076671
RightArm 5.446702 -40.587349 78.737804
RightForeArm -24.365598 -0.000000 25.788376
RightHand -13.241869 -0.000000 14.629373
RightHandThumb1 -24.326973 -0.000000 -32.862282
LeftUpLeg -7.230237 -2.893319 4.441574
LeftLeg 34.688825 -0.000000 -0.000000
LeftFoot -24.659816 -6.228771 -15.833487
LeftToeBase 18.291360 -0.000000 -0.000000
RightUpLeg -91.973917 4.765390 42.922066
RightLeg 95.604995 -0.000000 -0.000000
RightFoot 4.826088 7.819443 40.373368
RightToeBase 10.996931 -0.000000 -0.000000
760
root -4.126918 31.479715 -1.802768 -12.322433 35.755137 -10.943175
Spine 18.527645 -14.095248 -8.943286
Head 6.411396 -2.804206 13.993412
LeftShoulder -11.172283 6.245378 21.638101
LeftArm 39.063918 -13.337260 -72.005041
LeftForeArm 136.908759 -0.000000 125.978407
LeftHand 7.747163 -0.000000 -8.805876
LeftHandThumb1 -26.253704 0.000000 33.147579
RightShoulder -15.573716 -9.104298 -7.190896
RightArm 5.821746 -40.653794 78.497367
RightForeArm -24.163114 -0.000000 25.925144
RightHand -13.362778 -0.000000 14.417956
RightHandThumb1 -24.326973 -0.000000 -32.862282
LeftUpLeg -7.307617 -2.850279 4.183715
LeftLeg 34.864918 -0.000000 -0.000000
LeftFoot -24.763745 -6.103126 -15.852575
LeftToeBase 18.161280 -0.000000 -0.000000
RightUpLeg -92.278249 4.868874 43.881701
RightLeg 96.147685 -0.000000 -0.000000
RightFoot 4.538555 7.950212 40.549705
RightToeBase 10.919982 -0.000000 -0.000000
